<svg width="17" height="12" viewBox="0 0 17 12" fill="none" xmlns="http://www.w3.org/2000/svg">
<path d="M15.146 0.954311L5.93335 10.1663C5.87141 10.2285 5.7978 10.2778 5.71674 10.3115C5.63569 10.3452 5.54878 10.3625 5.46101 10.3625C5.37325 10.3625 5.28634 10.3452 5.20529 10.3115C5.12423 10.2778 5.05062 10.2285 4.98868 10.1663L1.42602 6.60031C1.36408 6.53813 1.29047 6.48878 1.20941 6.45512C1.12836 6.42145 1.04145 6.40412 0.953682 6.40412C0.865913 6.40412 0.779008 6.42145 0.697953 6.45512C0.616898 6.48878 0.543289 6.53813 0.481349 6.60031C0.419165 6.66225 0.369823 6.73586 0.336155 6.81692C0.302487 6.89797 0.285156 6.98487 0.285156 7.07264C0.285156 7.16041 0.302487 7.24732 0.336155 7.32837C0.369823 7.40943 0.419165 7.48304 0.481349 7.54498L4.04535 11.1083C4.42131 11.4836 4.93081 11.6943 5.46202 11.6943C5.99322 11.6943 6.50272 11.4836 6.87868 11.1083L16.0907 1.89831C16.1528 1.83638 16.202 1.76282 16.2356 1.68182C16.2692 1.60083 16.2865 1.514 16.2865 1.42631C16.2865 1.33862 16.2692 1.25179 16.2356 1.1708C16.202 1.08981 16.1528 1.01624 16.0907 0.954311C16.0287 0.892126 15.9551 0.842784 15.8741 0.809117C15.793 0.775449 15.7061 0.758118 15.6183 0.758118C15.5306 0.758118 15.4437 0.775449 15.3626 0.809117C15.2816 0.842784 15.208 0.892126 15.146 0.954311Z" fill="white"/>
</svg>
