<svg width="24" height="24" viewBox="0 0 24 24" fill="none" xmlns="http://www.w3.org/2000/svg">
<path d="M17.9998 5.99998C17.8123 5.81251 17.558 5.70719 17.2928 5.70719C17.0277 5.70719 16.7733 5.81251 16.5858 5.99998L11.9998 10.586L7.41382 5.99998C7.22629 5.81251 6.97198 5.70719 6.70682 5.70719C6.44165 5.70719 6.18735 5.81251 5.99982 5.99998C5.81235 6.18751 5.70703 6.44181 5.70703 6.70698C5.70703 6.97214 5.81235 7.22645 5.99982 7.41398L10.5858 12L5.99982 16.586C5.81235 16.7735 5.70703 17.0278 5.70703 17.293C5.70703 17.5581 5.81235 17.8125 5.99982 18C6.18735 18.1875 6.44165 18.2928 6.70682 18.2928C6.97198 18.2928 7.22629 18.1875 7.41382 18L11.9998 13.414L16.5858 18C16.7733 18.1875 17.0277 18.2928 17.2928 18.2928C17.558 18.2928 17.8123 18.1875 17.9998 18C18.1873 17.8125 18.2926 17.5581 18.2926 17.293C18.2926 17.0278 18.1873 16.7735 17.9998 16.586L13.4138 12L17.9998 7.41398C18.1873 7.22645 18.2926 6.97214 18.2926 6.70698C18.2926 6.44181 18.1873 6.18751 17.9998 5.99998Z" fill="white"/>
</svg>
