<svg width="24" height="25" viewBox="0 0 24 25" fill="none" xmlns="http://www.w3.org/2000/svg">
<g clip-path="url(#clip0_993_1412)">
<path d="M19 2.92188H18V1.92188C18 1.65666 17.8946 1.4023 17.7071 1.21477C17.5196 1.02723 17.2652 0.921875 17 0.921875C16.7348 0.921875 16.4804 1.02723 16.2929 1.21477C16.1054 1.4023 16 1.65666 16 1.92188V2.92188H8V1.92188C8 1.65666 7.89464 1.4023 7.70711 1.21477C7.51957 1.02723 7.26522 0.921875 7 0.921875C6.73478 0.921875 6.48043 1.02723 6.29289 1.21477C6.10536 1.4023 6 1.65666 6 1.92188V2.92188H5C3.67441 2.92346 2.40356 3.45076 1.46622 4.38809C0.528882 5.32543 0.00158786 6.59628 0 7.92188L0 19.9219C0.00158786 21.2475 0.528882 22.5183 1.46622 23.4557C2.40356 24.393 3.67441 24.9203 5 24.9219H19C20.3256 24.9203 21.5964 24.393 22.5338 23.4557C23.4711 22.5183 23.9984 21.2475 24 19.9219V7.92188C23.9984 6.59628 23.4711 5.32543 22.5338 4.38809C21.5964 3.45076 20.3256 2.92346 19 2.92188ZM2 7.92188C2 7.12623 2.31607 6.36316 2.87868 5.80055C3.44129 5.23795 4.20435 4.92188 5 4.92188H19C19.7956 4.92188 20.5587 5.23795 21.1213 5.80055C21.6839 6.36316 22 7.12623 22 7.92188V8.92188H2V7.92188ZM19 22.9219H5C4.20435 22.9219 3.44129 22.6058 2.87868 22.0432C2.31607 21.4806 2 20.7175 2 19.9219V10.9219H22V19.9219C22 20.7175 21.6839 21.4806 21.1213 22.0432C20.5587 22.6058 19.7956 22.9219 19 22.9219Z" fill="#294AA2"/>
<path d="M12 17.4219C12.8284 17.4219 13.5 16.7503 13.5 15.9219C13.5 15.0934 12.8284 14.4219 12 14.4219C11.1716 14.4219 10.5 15.0934 10.5 15.9219C10.5 16.7503 11.1716 17.4219 12 17.4219Z" fill="#294AA2"/>
<path d="M7 17.4219C7.82843 17.4219 8.5 16.7503 8.5 15.9219C8.5 15.0934 7.82843 14.4219 7 14.4219C6.17157 14.4219 5.5 15.0934 5.5 15.9219C5.5 16.7503 6.17157 17.4219 7 17.4219Z" fill="#294AA2"/>
<path d="M17 17.4219C17.8284 17.4219 18.5 16.7503 18.5 15.9219C18.5 15.0934 17.8284 14.4219 17 14.4219C16.1716 14.4219 15.5 15.0934 15.5 15.9219C15.5 16.7503 16.1716 17.4219 17 17.4219Z" fill="#294AA2"/>
</g>
<defs>
<clipPath id="clip0_993_1412">
<rect width="24" height="24" fill="white" transform="translate(0 0.921875)"/>
</clipPath>
</defs>
</svg>
