<svg width="24" height="24" viewBox="0 0 24 24" fill="none" xmlns="http://www.w3.org/2000/svg">
<g clip-path="url(#clip0_776_359)">
<path d="M21 4.00024H17.9C17.6679 2.87166 17.0538 1.85759 16.1613 1.12896C15.2687 0.400334 14.1522 0.00169866 13 0.000244141L11 0.000244141C9.8478 0.00169866 8.73132 0.400334 7.83875 1.12896C6.94618 1.85759 6.3321 2.87166 6.1 4.00024H3C2.73478 4.00024 2.48043 4.1056 2.29289 4.29314C2.10536 4.48067 2 4.73503 2 5.00024C2 5.26546 2.10536 5.51981 2.29289 5.70735C2.48043 5.89489 2.73478 6.00024 3 6.00024H4V19.0002C4.00159 20.3258 4.52888 21.5967 5.46622 22.534C6.40356 23.4714 7.67441 23.9987 9 24.0002H15C16.3256 23.9987 17.5964 23.4714 18.5338 22.534C19.4711 21.5967 19.9984 20.3258 20 19.0002V6.00024H21C21.2652 6.00024 21.5196 5.89489 21.7071 5.70735C21.8946 5.51981 22 5.26546 22 5.00024C22 4.73503 21.8946 4.48067 21.7071 4.29314C21.5196 4.1056 21.2652 4.00024 21 4.00024ZM11 2.00024H13C13.6203 2.001 14.2251 2.19362 14.7316 2.55169C15.2381 2.90975 15.6214 3.41574 15.829 4.00024H8.171C8.37858 3.41574 8.7619 2.90975 9.26839 2.55169C9.77487 2.19362 10.3797 2.001 11 2.00024ZM18 19.0002C18 19.7959 17.6839 20.559 17.1213 21.1216C16.5587 21.6842 15.7956 22.0002 15 22.0002H9C8.20435 22.0002 7.44129 21.6842 6.87868 21.1216C6.31607 20.559 6 19.7959 6 19.0002V6.00024H18V19.0002Z" fill="#294AA2"/>
<path d="M10 17.9996C10.2652 17.9996 10.5196 17.8943 10.7071 17.7067C10.8946 17.5192 11 17.2648 11 16.9996V10.9996C11 10.7344 10.8946 10.4801 10.7071 10.2925C10.5196 10.105 10.2652 9.99963 10 9.99963C9.73478 9.99963 9.48043 10.105 9.29289 10.2925C9.10536 10.4801 9 10.7344 9 10.9996V16.9996C9 17.2648 9.10536 17.5192 9.29289 17.7067C9.48043 17.8943 9.73478 17.9996 10 17.9996Z" fill="#294AA2"/>
<path d="M14 17.9996C14.2652 17.9996 14.5196 17.8943 14.7071 17.7067C14.8947 17.5192 15 17.2648 15 16.9996V10.9996C15 10.7344 14.8947 10.4801 14.7071 10.2925C14.5196 10.105 14.2652 9.99963 14 9.99963C13.7348 9.99963 13.4804 10.105 13.2929 10.2925C13.1054 10.4801 13 10.7344 13 10.9996V16.9996C13 17.2648 13.1054 17.5192 13.2929 17.7067C13.4804 17.8943 13.7348 17.9996 14 17.9996Z" fill="#294AA2"/>
</g>
<defs>
<clipPath id="clip0_776_359">
<rect width="24" height="24" fill="white" transform="translate(0 0.000244141)"/>
</clipPath>
</defs>
</svg>
